<mxfile host="app.diagrams.net" modified="2021-12-07T02:18:42.495Z" agent="5.0 (Macintosh; Intel Mac OS X 10_15_7) AppleWebKit/605.1.15 (KHTML, like Gecko) Version/15.1 Safari/605.1.15" etag="OPRs0UX5w4nGWzMHmXD8" version="15.9.1" type="github">
  <diagram id="IbjZQAHECNfICR0DH6va" name="Page-1">
    <mxGraphModel dx="830" dy="717" grid="1" gridSize="10" guides="1" tooltips="1" connect="1" arrows="1" fold="1" page="0" pageScale="1" pageWidth="827" pageHeight="1169" math="0" shadow="0">
      <root>
        <mxCell id="0" />
        <mxCell id="1" parent="0" />
        <mxCell id="_dThNEmBJh2mRuDcT6qh-5" value="" style="group" vertex="1" connectable="0" parent="1">
          <mxGeometry x="80" y="40" width="640" height="400" as="geometry" />
        </mxCell>
        <mxCell id="yCijVGpO5iMkP9iQnhM1-1" value="" style="rounded=0;whiteSpace=wrap;html=1;fillColor=none;" parent="_dThNEmBJh2mRuDcT6qh-5" vertex="1">
          <mxGeometry width="640" height="400" as="geometry" />
        </mxCell>
        <mxCell id="_dThNEmBJh2mRuDcT6qh-4" value="" style="endArrow=none;html=1;rounded=0;" edge="1" parent="_dThNEmBJh2mRuDcT6qh-5">
          <mxGeometry width="50" height="50" relative="1" as="geometry">
            <mxPoint y="40" as="sourcePoint" />
            <mxPoint x="640" y="40" as="targetPoint" />
          </mxGeometry>
        </mxCell>
        <mxCell id="_dThNEmBJh2mRuDcT6qh-6" value="" style="rounded=0;whiteSpace=wrap;html=1;fillColor=none;" vertex="1" parent="_dThNEmBJh2mRuDcT6qh-5">
          <mxGeometry x="330" y="50" width="300" height="340" as="geometry" />
        </mxCell>
      </root>
    </mxGraphModel>
  </diagram>
</mxfile>
